<svg width="12" height="12" viewBox="0 0 12 12" fill="none" xmlns="http://www.w3.org/2000/svg">
<path d="M11.3611 4.22554L7.8416 3.67806L6.26828 0.264102C6.22531 0.170629 6.15461 0.0949614 6.06728 0.0489671C5.84826 -0.0667604 5.58212 0.0296792 5.47261 0.264102L3.89929 3.67806L0.37976 4.22554C0.282727 4.24038 0.194011 4.28934 0.126088 4.36352C0.0439729 4.45386 -0.00127638 4.5754 0.000283156 4.70142C0.00184269 4.82745 0.0500834 4.94766 0.134405 5.03563L2.68083 7.69291L2.07922 11.4452C2.06512 11.5324 2.07414 11.6222 2.10527 11.7043C2.13641 11.7864 2.1884 11.8575 2.25536 11.9095C2.32233 11.9616 2.40158 11.9925 2.48413 11.9988C2.56668 12.0051 2.64923 11.9865 2.72241 11.9452L5.87044 10.1736L9.01847 11.9452C9.10442 11.9941 9.20422 12.0104 9.29987 11.9926C9.54107 11.9481 9.70325 11.7033 9.66166 11.4452L9.06006 7.69291L11.6065 5.03563C11.6758 4.96293 11.7215 4.86798 11.7354 4.76412C11.7728 4.50447 11.6037 4.26412 11.3611 4.22554Z" fill="#1A66FE"/>
</svg>
